<svg width="1436" height="1024" viewBox="0 0 1436 1024" fill="none" xmlns="http://www.w3.org/2000/svg">
<g opacity="0.5" clip-path="url(#clip0)">
<rect width="1441" height="1149" transform="translate(0.5 -63)" fill="black"/>
<path d="M636.965 1253.97C670.777 1227.05 689.431 1186.6 686.319 1147.02C681.913 1091.19 638.562 1051.55 582.417 1028.03C561.863 1019.4 540.279 1012.4 521.038 1001.73C474.595 975.987 476.758 935.701 455.537 896.425C398.402 790.612 238.982 867.771 140.78 842.974C76.8749 826.839 32.1291 774.417 29.8858 717.533C29.7241 713.454 29.7039 709.152 27.3393 705.598C25.7022 703.155 23.0951 701.317 20.4475 699.682C-20.8827 674.036 -83.0094 683.527 -119.873 711.051C-160.637 741.502 -179.292 788.31 -190.327 833.826C-199.138 870.154 -204.191 907.936 -195.44 944.283C-171.713 1042.95 -56.069 1104.86 -7.84698 1196.66C2.56137 1216.49 9.75626 1237.59 22.1048 1256.57C53.5117 1304.84 114.203 1333.31 174.754 1351.68C249.411 1374.34 333.244 1385.16 406.89 1360.19C454.061 1344.19 493.835 1314.59 541.33 1299.32C574.414 1288.64 611.035 1274.61 636.965 1253.97Z" fill="url(#paint0_linear)"/>
<path d="M844.769 -21.3779C833.431 16.3028 846.426 71.4508 875.832 100.832C905.218 130.213 951.783 145.823 996.225 141.219C1028.28 137.887 1057.83 124.983 1088.73 116.886C1119.63 108.788 1155.38 106.082 1182.22 121.692C1196.07 129.729 1207.24 142.43 1223.55 145.338C1238.2 147.963 1253.52 141.542 1263.49 131.829C1273.43 122.116 1278.87 109.556 1283.03 97.0358C1294.75 61.8792 1298.09 24.6225 1292.79 -11.6851C1289.07 -37.1691 1280.52 -63.1579 1260.76 -82.2406C1230.77 -111.218 1182.5 -118.104 1138.24 -124.142C1098.47 -129.574 1058.57 -135.713 1018.32 -135.369C978.056 -135.046 936.867 -127.797 903.298 -108.472C869.708 -89.1669 844.87 -56.4133 844.769 -21.3779Z" fill="url(#paint1_linear)"/>
<g opacity="0.7">
<g opacity="0.7">
<path opacity="0.7" d="M934.421 5.403L1563.57 -566.532" stroke="#969696" stroke-width="2" stroke-miterlimit="10" stroke-linecap="round" stroke-linejoin="round" stroke-dasharray="0.3 0.3"/>
</g>
<g opacity="0.7">
<path opacity="0.7" d="M1010.27 20.6892L1554.88 -472.674" stroke="#969696" stroke-width="2" stroke-miterlimit="10" stroke-linecap="round" stroke-linejoin="round" stroke-dasharray="0.3 0.3"/>
<path opacity="0.7" d="M1026.72 47.0213L1586.77 -460.699" stroke="#969696" stroke-width="2" stroke-miterlimit="10" stroke-linecap="round" stroke-linejoin="round" stroke-dasharray="0.3 0.3"/>
<path opacity="0.7" d="M1049.86 67.134L1622.42 -452.218" stroke="#969696" stroke-width="2" stroke-miterlimit="10" stroke-linecap="round" stroke-linejoin="round" stroke-dasharray="0.3 0.3"/>
<path opacity="0.7" d="M1067.91 91.9716L1658.4 -444.04" stroke="#969696" stroke-width="2" stroke-miterlimit="10" stroke-linecap="round" stroke-linejoin="round" stroke-dasharray="0.3 0.3"/>
<path opacity="0.7" d="M1089.11 113.902L1696.59 -437.901" stroke="#969696" stroke-width="2" stroke-miterlimit="10" stroke-linecap="round" stroke-linejoin="round" stroke-dasharray="0.3 0.3"/>
<path opacity="0.7" d="M1110.13 135.953L1725.82 -423.443" stroke="#969696" stroke-width="2" stroke-miterlimit="10" stroke-linecap="round" stroke-linejoin="round" stroke-dasharray="0.3 0.3"/>
<path opacity="0.7" d="M1131.21 158.004L1761.59 -415.062" stroke="#969696" stroke-width="2" stroke-miterlimit="10" stroke-linecap="round" stroke-linejoin="round" stroke-dasharray="0.3 0.3"/>
<path opacity="0.7" d="M1152.94 179.429L1790.68 -400.483" stroke="#969696" stroke-width="2" stroke-miterlimit="10" stroke-linecap="round" stroke-linejoin="round" stroke-dasharray="0.3 0.3"/>
<path opacity="0.7" d="M1172.09 203.217L1814.91 -381.4" stroke="#969696" stroke-width="2" stroke-miterlimit="10" stroke-linecap="round" stroke-linejoin="round" stroke-dasharray="0.3 0.3"/>
<path opacity="0.7" d="M1193.86 224.622L1842.25 -365.185" stroke="#969696" stroke-width="2" stroke-miterlimit="10" stroke-linecap="round" stroke-linejoin="round" stroke-dasharray="0.3 0.3"/>
<path opacity="0.7" d="M1216.96 244.754L1869.17 -348.566" stroke="#969696" stroke-width="2" stroke-miterlimit="10" stroke-linecap="round" stroke-linejoin="round" stroke-dasharray="0.3 0.3"/>
<path opacity="0.7" d="M1236.43 268.3L1865.57 -303.636" stroke="#969696" stroke-width="2" stroke-miterlimit="10" stroke-linecap="round" stroke-linejoin="round" stroke-dasharray="0.3 0.3"/>
</g>
</g>
<g opacity="0.7">
<g opacity="0.7">
<path opacity="0.7" d="M-262.235 1021L184.172 557.541" stroke="#969696" stroke-width="2" stroke-miterlimit="10" stroke-linecap="round" stroke-linejoin="round" stroke-dasharray="0.3 0.3"/>
<path opacity="0.7" d="M-258.657 1058.8L215.802 565.416" stroke="#969696" stroke-width="2" stroke-miterlimit="10" stroke-linecap="round" stroke-linejoin="round" stroke-dasharray="0.3 0.3"/>
<path opacity="0.7" d="M-244.329 1085.11L243.59 577.411" stroke="#969696" stroke-width="2" stroke-miterlimit="10" stroke-linecap="round" stroke-linejoin="round" stroke-dasharray="0.3 0.3"/>
<path opacity="0.7" d="M-224.159 1105.22L274.653 585.892" stroke="#969696" stroke-width="2" stroke-miterlimit="10" stroke-linecap="round" stroke-linejoin="round" stroke-dasharray="0.3 0.3"/>
<path opacity="0.7" d="M-208.456 1130.08L306 594.07" stroke="#969696" stroke-width="2" stroke-miterlimit="10" stroke-linecap="round" stroke-linejoin="round" stroke-dasharray="0.3 0.3"/>
<path opacity="0.7" d="M-189.982 1151.99L339.267 600.209" stroke="#969696" stroke-width="2" stroke-miterlimit="10" stroke-linecap="round" stroke-linejoin="round" stroke-dasharray="0.3 0.3"/>
<path opacity="0.7" d="M-171.652 1174.06L364.731 614.648" stroke="#969696" stroke-width="2" stroke-miterlimit="10" stroke-linecap="round" stroke-linejoin="round" stroke-dasharray="0.3 0.3"/>
<path opacity="0.7" d="M-153.301 1196.09L395.896 623.028" stroke="#969696" stroke-width="2" stroke-miterlimit="10" stroke-linecap="round" stroke-linejoin="round" stroke-dasharray="0.3 0.3"/>
<path opacity="0.7" d="M-134.364 1217.52L421.24 637.607" stroke="#969696" stroke-width="2" stroke-miterlimit="10" stroke-linecap="round" stroke-linejoin="round" stroke-dasharray="0.3 0.3"/>
<path opacity="0.7" d="M-117.671 1241.33L442.359 656.711" stroke="#969696" stroke-width="2" stroke-miterlimit="10" stroke-linecap="round" stroke-linejoin="round" stroke-dasharray="0.3 0.3"/>
<path opacity="0.7" d="M-98.7124 1262.71L466.168 672.926" stroke="#969696" stroke-width="2" stroke-miterlimit="10" stroke-linecap="round" stroke-linejoin="round" stroke-dasharray="0.3 0.3"/>
<path opacity="0.7" d="M-78.5825 1282.87L489.612 689.524" stroke="#969696" stroke-width="2" stroke-miterlimit="10" stroke-linecap="round" stroke-linejoin="round" stroke-dasharray="0.3 0.3"/>
<path opacity="0.7" d="M-61.647 1306.39L486.499 734.455" stroke="#969696" stroke-width="2" stroke-miterlimit="10" stroke-linecap="round" stroke-linejoin="round" stroke-dasharray="0.3 0.3"/>
</g>
<g opacity="0.7">
<path opacity="0.7" d="M0.884277 1283.89L447.291 820.438" stroke="#969696" stroke-width="2" stroke-miterlimit="10" stroke-linecap="round" stroke-linejoin="round" stroke-dasharray="0.3 0.3"/>
<path opacity="0.7" d="M4.46143 1321.68L478.92 828.314" stroke="#969696" stroke-width="2" stroke-miterlimit="10" stroke-linecap="round" stroke-linejoin="round" stroke-dasharray="0.3 0.3"/>
<path opacity="0.7" d="M18.79 1348.01L506.689 840.308" stroke="#969696" stroke-width="2" stroke-miterlimit="10" stroke-linecap="round" stroke-linejoin="round" stroke-dasharray="0.3 0.3"/>
<path opacity="0.7" d="M38.9404 1368.12L537.773 848.769" stroke="#969696" stroke-width="2" stroke-miterlimit="10" stroke-linecap="round" stroke-linejoin="round" stroke-dasharray="0.3 0.3"/>
<path opacity="0.7" d="M54.6631 1392.96L569.098 856.948" stroke="#969696" stroke-width="2" stroke-miterlimit="10" stroke-linecap="round" stroke-linejoin="round" stroke-dasharray="0.3 0.3"/>
<path opacity="0.7" d="M73.1362 1414.89L602.385 863.086" stroke="#969696" stroke-width="2" stroke-miterlimit="10" stroke-linecap="round" stroke-linejoin="round" stroke-dasharray="0.3 0.3"/>
<path opacity="0.7" d="M91.4468 1436.96L627.85 877.545" stroke="#969696" stroke-width="2" stroke-miterlimit="10" stroke-linecap="round" stroke-linejoin="round" stroke-dasharray="0.3 0.3"/>
<path opacity="0.7" d="M109.818 1458.99L658.994 885.924" stroke="#969696" stroke-width="2" stroke-miterlimit="10" stroke-linecap="round" stroke-linejoin="round" stroke-dasharray="0.3 0.3"/>
<path opacity="0.7" d="M128.735 1480.42L684.338 900.505" stroke="#969696" stroke-width="2" stroke-miterlimit="10" stroke-linecap="round" stroke-linejoin="round" stroke-dasharray="0.3 0.3"/>
<path opacity="0.7" d="M145.448 1504.2L705.458 919.587" stroke="#969696" stroke-width="2" stroke-miterlimit="10" stroke-linecap="round" stroke-linejoin="round" stroke-dasharray="0.3 0.3"/>
<path opacity="0.7" d="M164.386 1525.61L729.266 935.822" stroke="#969696" stroke-width="2" stroke-miterlimit="10" stroke-linecap="round" stroke-linejoin="round" stroke-dasharray="0.3 0.3"/>
<path opacity="0.7" d="M184.516 1545.74L752.71 952.422" stroke="#969696" stroke-width="2" stroke-miterlimit="10" stroke-linecap="round" stroke-linejoin="round" stroke-dasharray="0.3 0.3"/>
<path opacity="0.7" d="M201.472 1569.29L749.598 997.352" stroke="#969696" stroke-width="2" stroke-miterlimit="10" stroke-linecap="round" stroke-linejoin="round" stroke-dasharray="0.3 0.3"/>
</g>
</g>
<path d="M1034.97 1019.47C1034.97 1021.18 1033.57 1022.58 1031.86 1022.58C1030.14 1022.58 1028.74 1021.18 1028.74 1019.47C1028.74 1017.75 1030.14 1016.36 1031.86 1016.36C1033.57 1016.38 1034.97 1017.75 1034.97 1019.47Z" fill="white"/>
<path d="M1285.9 328.776C1287.62 328.776 1289.01 327.384 1289.01 325.666C1289.01 323.949 1287.62 322.556 1285.9 322.556C1284.18 322.556 1282.79 323.949 1282.79 325.666C1282.79 327.384 1284.18 328.776 1285.9 328.776Z" fill="white"/>
<g opacity="0.7">
<g opacity="0.7">
<path opacity="0.7" d="M1010.36 1065.04L1456.79 601.586" stroke="#969696" stroke-width="2" stroke-miterlimit="10" stroke-linecap="round" stroke-linejoin="round" stroke-dasharray="0.3 0.3"/>
<path opacity="0.7" d="M1013.94 1102.84L1488.42 609.461" stroke="#969696" stroke-width="2" stroke-miterlimit="10" stroke-linecap="round" stroke-linejoin="round" stroke-dasharray="0.3 0.3"/>
<path opacity="0.7" d="M1028.29 1129.16L1516.18 621.456" stroke="#969696" stroke-width="2" stroke-miterlimit="10" stroke-linecap="round" stroke-linejoin="round" stroke-dasharray="0.3 0.3"/>
<path opacity="0.7" d="M1048.44 1149.27L1547.25 629.917" stroke="#969696" stroke-width="2" stroke-miterlimit="10" stroke-linecap="round" stroke-linejoin="round" stroke-dasharray="0.3 0.3"/>
<path opacity="0.7" d="M1064.16 1174.11L1578.59 638.096" stroke="#969696" stroke-width="2" stroke-miterlimit="10" stroke-linecap="round" stroke-linejoin="round" stroke-dasharray="0.3 0.3"/>
<path opacity="0.7" d="M1082.63 1196.04L1611.86 644.234" stroke="#969696" stroke-width="2" stroke-miterlimit="10" stroke-linecap="round" stroke-linejoin="round" stroke-dasharray="0.3 0.3"/>
<path opacity="0.7" d="M1100.94 1218.11L1637.33 658.693" stroke="#969696" stroke-width="2" stroke-miterlimit="10" stroke-linecap="round" stroke-linejoin="round" stroke-dasharray="0.3 0.3"/>
<path opacity="0.7" d="M1119.29 1240.14L1668.49 667.073" stroke="#969696" stroke-width="2" stroke-miterlimit="10" stroke-linecap="round" stroke-linejoin="round" stroke-dasharray="0.3 0.3"/>
<path opacity="0.7" d="M1138.23 1261.56L1693.83 681.652" stroke="#969696" stroke-width="2" stroke-miterlimit="10" stroke-linecap="round" stroke-linejoin="round" stroke-dasharray="0.3 0.3"/>
<path opacity="0.7" d="M1154.92 1285.35L1714.95 700.735" stroke="#969696" stroke-width="2" stroke-miterlimit="10" stroke-linecap="round" stroke-linejoin="round" stroke-dasharray="0.3 0.3"/>
<path opacity="0.7" d="M1173.88 1306.76L1738.76 716.971" stroke="#969696" stroke-width="2" stroke-miterlimit="10" stroke-linecap="round" stroke-linejoin="round" stroke-dasharray="0.3 0.3"/>
<path opacity="0.7" d="M1194.01 1326.89L1762.21 733.57" stroke="#969696" stroke-width="2" stroke-miterlimit="10" stroke-linecap="round" stroke-linejoin="round" stroke-dasharray="0.3 0.3"/>
<path opacity="0.7" d="M1210.97 1350.44L1759.09 778.5" stroke="#969696" stroke-width="2" stroke-miterlimit="10" stroke-linecap="round" stroke-linejoin="round" stroke-dasharray="0.3 0.3"/>
</g>
</g>
<path d="M1395.31 532.666C1400.9 532.666 1405.43 528.137 1405.43 522.549C1405.43 516.962 1400.9 512.432 1395.31 512.432C1389.71 512.432 1385.18 516.962 1385.18 522.549C1385.18 528.137 1389.71 532.666 1395.31 532.666Z" fill="url(#paint2_linear)"/>
<path d="M1395.31 539.875C1404.88 539.875 1412.65 532.118 1412.65 522.549C1412.65 512.98 1404.88 505.223 1395.31 505.223C1385.73 505.223 1377.96 512.98 1377.96 522.549C1377.96 532.118 1385.73 539.875 1395.31 539.875Z" stroke="url(#paint3_linear)" stroke-miterlimit="10"/>
<path d="M1175.3 1021.12C1175.3 1027.89 1169.8 1033.38 1163.03 1033.38C1156.26 1033.38 1150.76 1027.89 1150.76 1021.12C1150.76 1014.36 1156.26 1008.87 1163.03 1008.87C1169.8 1008.87 1175.3 1014.34 1175.3 1021.12Z" stroke="url(#paint4_linear)" stroke-miterlimit="10"/>
<path d="M1444.22 577.172C1457.57 577.172 1468.39 566.359 1468.39 553.021C1468.39 539.683 1457.57 528.87 1444.22 528.87C1430.87 528.87 1420.04 539.683 1420.04 553.021C1420.04 566.359 1430.87 577.172 1444.22 577.172Z" fill="url(#paint5_linear)"/>
<path d="M761.994 814.767C761.994 820.946 756.982 825.954 750.797 825.954C744.613 825.954 739.601 820.946 739.601 814.767C739.601 808.588 744.613 803.58 750.797 803.58C756.982 803.58 761.994 808.588 761.994 814.767Z" fill="url(#paint6_linear)"/>
<path d="M1322.69 494.703L1340.72 473.237" stroke="url(#paint7_linear)" stroke-miterlimit="10"/>
<path d="M1328.23 499.327L1356.54 465.624" stroke="url(#paint8_linear)" stroke-miterlimit="10"/>
<path d="M1322.69 517.158L1351.77 482.506" stroke="url(#paint9_linear)" stroke-miterlimit="10"/>
<path d="M772.726 744.615L790.733 723.15" stroke="url(#paint10_linear)" stroke-miterlimit="10"/>
<path d="M778.243 749.26L806.558 715.537" stroke="url(#paint11_linear)" stroke-miterlimit="10"/>
<path d="M772.726 767.07L801.789 732.419" stroke="url(#paint12_linear)" stroke-miterlimit="10"/>
<path d="M1373.7 864.745L1396.7 837.323" stroke="url(#paint13_linear)" stroke-miterlimit="10"/>
<path d="M1380.75 870.662L1416.91 827.59" stroke="url(#paint14_linear)" stroke-miterlimit="10"/>
<path d="M1373.7 893.42L1410.85 849.176" stroke="url(#paint15_linear)" stroke-miterlimit="10"/>
<g opacity="0.5">
<path opacity="0.5" d="M1336.39 386.042L1309.39 416.11" stroke="url(#paint16_linear)" stroke-miterlimit="10"/>
<path opacity="0.5" d="M1344.13 392.989L1301.73 440.221" stroke="url(#paint17_linear)" stroke-miterlimit="10"/>
<path opacity="0.5" d="M1368.47 381.479L1324.89 430.003" stroke="url(#paint18_linear)" stroke-miterlimit="10"/>
</g>
<path d="M761.995 851.7L796.251 810.89" stroke="url(#paint19_linear)" stroke-miterlimit="10"/>
<path d="M772.505 860.505L826.325 796.411" stroke="url(#paint20_linear)" stroke-miterlimit="10"/>
<path d="M761.995 894.389L817.27 828.518" stroke="url(#paint21_linear)" stroke-miterlimit="10"/>
<path d="M826.324 763.193C830.041 763.193 833.054 760.182 833.054 756.469C833.054 752.755 830.041 749.744 826.324 749.744C822.607 749.744 819.594 752.755 819.594 756.469C819.594 760.182 822.607 763.193 826.324 763.193Z" fill="white"/>
<path d="M830.749 897.66C830.749 901.376 827.738 904.385 824.019 904.385C820.3 904.385 817.289 901.376 817.289 897.66C817.289 893.945 820.3 890.936 824.019 890.936C827.738 890.936 830.749 893.945 830.749 897.66Z" fill="white"/>
<path d="M795.503 571.538C795.503 573.255 794.108 574.648 792.39 574.648C790.672 574.648 789.278 573.255 789.278 571.538C789.278 569.822 790.672 568.429 792.39 568.429C794.108 568.449 795.503 569.822 795.503 571.538Z" fill="white"/>
<path d="M1392.27 661.419C1393.99 661.419 1395.39 660.026 1395.39 658.309C1395.39 656.592 1393.99 655.199 1392.27 655.199C1390.56 655.199 1389.16 656.592 1389.16 658.309C1389.16 660.026 1390.56 661.419 1392.27 661.419Z" fill="white"/>
<path d="M1423.14 938.209C1423.14 939.925 1421.74 941.318 1420.02 941.318C1418.31 941.318 1416.91 939.925 1416.91 938.209C1416.91 936.492 1418.31 935.099 1420.02 935.099C1421.74 935.119 1423.14 936.492 1423.14 938.209Z" fill="white"/>
<path d="M761.994 529.274C765.711 529.274 768.724 526.263 768.724 522.549C768.724 518.836 765.711 515.825 761.994 515.825C758.277 515.825 755.264 518.836 755.264 522.549C755.264 526.263 758.277 529.274 761.994 529.274Z" fill="white"/>
<path d="M945.24 969.69C945.24 973.406 942.229 976.414 938.51 976.414C934.792 976.414 931.78 973.406 931.78 969.69C931.78 965.974 934.792 962.966 938.51 962.966C942.229 962.966 945.24 965.974 945.24 969.69Z" fill="white"/>
<path d="M1380.43 965.631C1380.43 969.347 1377.42 972.356 1373.7 972.356C1369.98 972.356 1366.97 969.347 1366.97 965.631C1366.97 961.916 1369.98 958.907 1373.7 958.907C1377.42 958.907 1380.43 961.916 1380.43 965.631Z" fill="white"/>
<path d="M686.71 674.867C690.427 674.867 693.44 671.857 693.44 668.143C693.44 664.429 690.427 661.419 686.71 661.419C682.993 661.419 679.98 664.429 679.98 668.143C679.98 671.857 682.993 674.867 686.71 674.867Z" fill="white"/>
<path d="M877.051 976.556L895.644 984.108L904.011 955.232L877.051 976.556Z" fill="#FF7E3D"/>
<path d="M826.324 952.445L841.441 991.014L899.465 940.248L826.324 952.445Z" fill="url(#paint22_linear)"/>
<path d="M1481.28 634.905L1473.18 675.534L1407.13 635.733L1481.28 634.905Z" fill="#FF7E3D"/>
<path d="M814.318 480.406L789.722 497.631L819.31 512.917L814.318 480.406Z" fill="#FF7E3D"/>
<path d="M1417.07 703.118L1389.12 692.153L1392.72 725.23L1417.07 703.118Z" fill="url(#paint23_linear)"/>
<path d="M1160.95 408.78C1133.76 393.675 1100.09 383.74 1069.21 392.585C1045.24 399.451 1027.15 417.342 1013.49 437.495C998.112 460.172 987.279 485.596 975.8 510.373C968.767 525.538 961.107 540.118 950.84 553.405C939.805 567.702 926.668 580.383 912.016 590.924C896.858 601.808 880.164 610.31 862.46 616.186C842.27 622.89 821.292 626.605 800.576 631.29C766.521 639.024 730.405 651.039 708.113 679.674C698.251 692.335 692.39 707.682 692.127 723.776C691.844 740.294 697.139 756.57 705.486 770.705C724.423 802.833 757.346 821.209 791.704 832.981C828.486 845.582 867.311 851.579 903.325 866.522C921.313 873.994 938.532 883.788 952.801 897.176C966.948 910.463 977.882 926.638 987.603 943.318C1005.93 974.819 1020.69 1009.17 1047.1 1035.08C1059.29 1047.03 1073.86 1056.7 1090.31 1061.63C1106.84 1066.56 1124.51 1066.56 1141.3 1062.98C1220.22 1046.16 1255.35 966.702 1287.16 901.457C1304.95 864.988 1324.67 829.488 1354.64 801.52C1383.58 774.522 1418.12 753.924 1445.11 724.765C1469.07 698.877 1487.1 665.72 1482.88 629.433C1478.86 594.942 1457.37 564.43 1431.02 542.844C1400.66 517.986 1363.11 503.446 1326.65 490.078C1307.09 482.91 1287.28 476.226 1268.28 467.623C1249.53 459.122 1231.5 449.167 1213.7 438.868C1205.19 433.941 1196.74 428.933 1188.25 423.966C1179.24 418.695 1169.88 414.131 1160.77 409.063C1160.06 408.659 1159.41 409.749 1160.12 410.153C1169.21 415.202 1177.86 421.078 1186.84 426.348C1195.33 431.316 1203.77 436.324 1212.28 441.251C1229.68 451.327 1247.31 461.061 1265.6 469.421C1301.87 486.02 1340.64 496.419 1376.81 513.301C1410.55 529.031 1442.28 550.154 1462.53 582.099C1471.82 596.76 1478.45 613.318 1480.27 630.644C1482.17 648.717 1478.53 666.79 1470.81 683.167C1454.64 717.475 1424.51 741.95 1395.19 764.708C1379.62 776.783 1363.9 788.758 1349.69 802.429C1335.95 815.635 1324.13 830.558 1313.86 846.592C1292.92 879.285 1278.27 915.39 1260.3 949.699C1242.76 983.179 1221.3 1016.7 1189.73 1038.63C1160.56 1058.88 1122.14 1069.75 1087.56 1057.87C1053.53 1046.18 1031.03 1015.23 1013.9 985.259C995.707 953.435 980.59 918.52 952.841 893.521C925.436 868.845 889.401 857.173 854.437 847.844C817.492 837.989 778.91 829.912 746.331 808.87C717.592 790.313 693.703 758.205 694.835 722.685C695.967 686.701 725.07 661.399 755.871 647.829C792.835 631.533 834.307 630.099 871.898 615.641C903.386 603.525 931.297 582.645 952.053 556.111C970.485 532.565 980.873 504.517 993.828 477.862C1005 454.861 1017.68 431.276 1036.86 413.869C1056.66 395.877 1082.09 389.092 1108.44 392.767C1126.61 395.291 1143.89 401.753 1159.96 410.497C1161.05 411.042 1162.02 409.386 1160.95 408.78Z" fill="url(#paint24_linear)"/>
<g opacity="0.4248">
<path opacity="0.4248" d="M1171.46 350.3C1140.37 333.035 1101.85 321.686 1066.54 331.823C1039.16 339.678 1018.48 360.134 1002.88 383.155C985.278 409.123 972.889 438.222 959.732 466.573C951.669 483.96 942.897 500.64 931.155 515.865C918.523 532.242 903.467 546.801 886.652 558.857C869.291 571.336 850.152 581.07 829.881 587.794C806.78 595.467 782.75 599.708 759.043 605.1C720.098 613.944 678.768 627.676 653.262 660.429C642.005 674.888 635.336 692.416 635.012 710.792C634.689 729.672 640.752 748.25 650.271 764.405C671.916 801.136 709.568 822.158 748.857 835.606C790.976 850.024 835.418 856.89 876.648 873.994C897.282 882.556 917.028 893.784 933.378 909.13C949.587 924.336 962.117 942.874 973.253 961.997C994.211 998.042 1011.11 1037.36 1041.34 1067C1055.27 1080.67 1071.9 1091.72 1090.72 1097.35C1109.61 1102.99 1129.78 1102.99 1148.98 1098.91C1239.26 1079.66 1279.44 988.733 1315.84 914.078C1336.21 872.318 1358.79 831.649 1393.14 799.622C1426.29 768.726 1465.82 745.14 1496.7 711.761C1524.11 682.157 1544.72 644.255 1539.87 602.757C1535.26 563.34 1510.69 528.446 1480.55 503.769C1445.83 475.337 1402.87 458.698 1361.17 443.412C1338.76 435.193 1316.06 427.54 1294.3 417.685C1272.83 407.952 1252.18 396.563 1231.8 384.75C1222.06 379.116 1212.38 373.381 1202.68 367.687C1192.37 361.649 1181.7 356.338 1171.27 350.542C1170.57 350.139 1169.92 351.229 1170.63 351.633C1181.04 357.408 1191 364.052 1201.29 370.069C1210.99 375.764 1220.69 381.479 1230.41 387.133C1250.32 398.663 1270.49 409.81 1291.43 419.382C1332.96 438.383 1377.34 450.277 1418.75 469.602C1457.39 487.635 1493.73 511.827 1516.95 548.417C1527.6 565.218 1535.2 584.22 1537.28 604.09C1539.47 624.828 1535.28 645.527 1526.41 664.327C1507.88 703.623 1473.38 731.651 1439.81 757.721C1421.98 771.553 1404 785.244 1387.73 800.894C1372 815.999 1358.48 833.082 1346.74 851.418C1322.77 888.856 1306 930.192 1285.42 969.468C1265.31 1007.84 1240.74 1046.22 1204.56 1071.34C1171.13 1094.55 1127.07 1107 1087.44 1093.37C1048.44 1079.97 1022.63 1044.51 1002.98 1010.14C982.166 973.729 964.866 933.766 933.115 905.152C901.769 876.922 860.54 863.574 820.544 852.912C778.243 841.624 734.043 832.355 696.755 808.285C663.812 787.021 636.427 750.189 637.7 709.459C638.994 668.204 672.361 639.166 707.669 623.597C749.989 604.938 797.504 603.302 840.552 586.724C876.547 572.871 908.479 548.962 932.226 518.632C953.326 491.674 965.21 459.586 980.024 429.095C992.837 402.742 1007.35 375.744 1029.32 355.793C1052.05 335.155 1081.2 327.381 1111.45 331.621C1132.27 334.529 1152.05 341.92 1170.45 351.956C1171.58 352.542 1172.55 350.886 1171.46 350.3Z" fill="url(#paint25_linear)"/>
</g>
<path d="M1317.74 806.932C1341.55 781.226 1371.66 762.769 1397.65 739.506C1420.31 719.232 1441.12 693.466 1446.22 662.671C1451.11 632.946 1439.55 603.706 1420.89 580.868C1400.12 555.424 1371.2 538.906 1341.41 526.063C1308.85 512.029 1274.47 502.477 1242.54 486.969C1210.73 471.501 1181.5 451.469 1150.15 435.213C1126.41 422.895 1097.24 415.363 1070.83 422.976C1050.5 428.832 1034.73 443.452 1022.65 460.293C1008.84 479.517 999.123 501.367 989.28 522.751C983.641 535.029 978.124 547.347 970.707 558.695C962.4 571.377 952.356 582.907 940.977 592.923C929.316 603.202 916.22 611.844 902.194 618.528C886.046 626.222 868.685 630.725 851.284 634.582C819.634 641.589 786.651 647.243 760.074 667.154C748.898 675.534 739.237 686.196 733.599 699.1C727.96 711.983 726.828 726.26 729.678 739.991C735.802 769.433 757.427 793.14 782.952 807.76C840.633 840.816 917.23 835.142 966.786 883.404C990.836 906.828 1003.87 938.37 1020.65 966.823C1035.54 992.105 1054.72 1017.25 1082.75 1028.61C1111.35 1040.23 1143.93 1034.17 1170.26 1019.59C1198.74 1003.84 1219.6 977.828 1235.97 950.284C1240.09 943.338 1243.97 936.27 1247.69 929.102C1251.53 921.731 1254.48 914.017 1258.1 906.546C1258.44 905.819 1257.37 905.172 1257.01 905.899C1253.43 913.31 1249.1 920.398 1245.31 927.688C1241.49 935.018 1237.52 942.288 1233.28 949.396C1224.93 963.39 1215.58 976.818 1204.5 988.793C1183.14 1011.89 1154.34 1029.26 1122.43 1031.72C1107.09 1032.92 1091.61 1030.31 1077.8 1023.4C1064.32 1016.66 1052.96 1006.46 1043.34 994.972C1023.07 970.76 1010.95 941.319 994.454 914.643C986.249 901.376 976.871 888.695 965.25 878.214C953.568 867.674 939.886 859.596 925.537 853.276C896.05 840.271 864.218 834.415 833.458 825.267C802.819 816.16 771.675 803.136 751.121 777.611C732.507 754.49 723.675 722.261 738.712 694.98C753.304 668.507 782.952 654.412 810.924 646.718C843.644 637.712 877.941 634.299 908.459 618.488C934.207 605.16 956.458 585.149 972.465 560.997C986.127 540.4 994.555 516.613 1005.63 494.602C1015.41 475.196 1026.71 455.528 1043.36 441.15C1060.62 426.247 1082.43 420.613 1104.92 423.441C1138.49 427.641 1166.87 447.652 1195.39 464.292C1210.4 473.056 1225.54 481.658 1241.2 489.251C1256.3 496.581 1271.86 502.538 1287.63 508.253C1346.28 529.597 1417.82 554.253 1439.89 619.477C1444.76 633.855 1446.2 649.242 1443.35 664.185C1440.44 679.411 1433.5 693.546 1424.59 706.147C1405.55 733.125 1378.39 752.228 1352.84 772.502C1339.97 782.72 1327.44 793.382 1316.39 805.559C1315.56 806.488 1316.91 807.841 1317.74 806.932Z" fill="url(#paint26_linear)"/>
</g>
<defs>
<linearGradient id="paint0_linear" x1="449.591" y1="843.492" x2="161.389" y2="1053.65" gradientUnits="userSpaceOnUse">
<stop offset="0.1031" stop-color="#2F3E41"/>
<stop offset="0.3506" stop-color="#273132"/>
<stop offset="0.714" stop-color="#1E2422"/>
<stop offset="0.9948" stop-color="#1B1F1C"/>
</linearGradient>
<linearGradient id="paint1_linear" x1="840.702" y1="5.25951" x2="1295.25" y2="5.25951" gradientUnits="userSpaceOnUse">
<stop offset="0.1031" stop-color="#2F3E41"/>
<stop offset="0.3506" stop-color="#273132"/>
<stop offset="0.714" stop-color="#1E2422"/>
<stop offset="0.9948" stop-color="#1B1F1C"/>
</linearGradient>
<linearGradient id="paint2_linear" x1="1385.19" y1="522.557" x2="1405.42" y2="522.557" gradientUnits="userSpaceOnUse">
<stop offset="0.0277" stop-color="#FFD24D"/>
<stop offset="0.7154" stop-color="#F6BE56"/>
<stop offset="1" stop-color="#F2B45A"/>
</linearGradient>
<linearGradient id="paint3_linear" x1="1376.95" y1="522.557" x2="1413.66" y2="522.557" gradientUnits="userSpaceOnUse">
<stop offset="0.0277" stop-color="#FFD24D"/>
<stop offset="0.7154" stop-color="#F6BE56"/>
<stop offset="1" stop-color="#F2B45A"/>
</linearGradient>
<linearGradient id="paint4_linear" x1="1149.74" y1="1021.11" x2="1176.3" y2="1021.11" gradientUnits="userSpaceOnUse">
<stop offset="0.0277" stop-color="#FFD24D"/>
<stop offset="0.7154" stop-color="#F6BE56"/>
<stop offset="1" stop-color="#F2B45A"/>
</linearGradient>
<linearGradient id="paint5_linear" x1="1420.03" y1="553.03" x2="1468.39" y2="553.03" gradientUnits="userSpaceOnUse">
<stop offset="0.0277" stop-color="#FFD24D"/>
<stop offset="0.7154" stop-color="#F6BE56"/>
<stop offset="1" stop-color="#F2B45A"/>
</linearGradient>
<linearGradient id="paint6_linear" x1="739.616" y1="814.761" x2="761.993" y2="814.761" gradientUnits="userSpaceOnUse">
<stop offset="0.0277" stop-color="#FFD24D"/>
<stop offset="0.7154" stop-color="#F6BE56"/>
<stop offset="1" stop-color="#F2B45A"/>
</linearGradient>
<linearGradient id="paint7_linear" x1="1321.12" y1="484.894" x2="1342.29" y2="483.037" gradientUnits="userSpaceOnUse">
<stop offset="0.0277" stop-color="#FFD24D"/>
<stop offset="0.7154" stop-color="#F6BE56"/>
<stop offset="1" stop-color="#F2B45A"/>
</linearGradient>
<linearGradient id="paint8_linear" x1="1326.16" y1="483.896" x2="1358.61" y2="481.05" gradientUnits="userSpaceOnUse">
<stop offset="0.0277" stop-color="#FFD24D"/>
<stop offset="0.7154" stop-color="#F6BE56"/>
<stop offset="1" stop-color="#F2B45A"/>
</linearGradient>
<linearGradient id="paint9_linear" x1="1320.59" y1="501.288" x2="1353.89" y2="498.367" gradientUnits="userSpaceOnUse">
<stop offset="0.0277" stop-color="#FFD24D"/>
<stop offset="0.7154" stop-color="#F6BE56"/>
<stop offset="1" stop-color="#F2B45A"/>
</linearGradient>
<linearGradient id="paint10_linear" x1="771.943" y1="733.883" x2="791.508" y2="733.883" gradientUnits="userSpaceOnUse">
<stop offset="0.0277" stop-color="#FFD24D"/>
<stop offset="0.1674" stop-color="#EBC34D"/>
<stop offset="0.4544" stop-color="#B69D4D"/>
<stop offset="0.8604" stop-color="#625F4E"/>
<stop offset="1" stop-color="#44494E"/>
</linearGradient>
<linearGradient id="paint11_linear" x1="777.475" y1="732.392" x2="807.329" y2="732.392" gradientUnits="userSpaceOnUse">
<stop offset="0.0277" stop-color="#FFD24D"/>
<stop offset="0.1674" stop-color="#EBC34D"/>
<stop offset="0.4544" stop-color="#B69D4D"/>
<stop offset="0.8604" stop-color="#625F4E"/>
<stop offset="1" stop-color="#44494E"/>
</linearGradient>
<linearGradient id="paint12_linear" x1="771.943" y1="749.746" x2="802.573" y2="749.746" gradientUnits="userSpaceOnUse">
<stop offset="0.0277" stop-color="#FFD24D"/>
<stop offset="0.1674" stop-color="#EBC34D"/>
<stop offset="0.4544" stop-color="#B69D4D"/>
<stop offset="0.8604" stop-color="#625F4E"/>
<stop offset="1" stop-color="#44494E"/>
</linearGradient>
<linearGradient id="paint13_linear" x1="1371.88" y1="852.202" x2="1398.52" y2="849.865" gradientUnits="userSpaceOnUse">
<stop offset="0.0277" stop-color="#FFD24D"/>
<stop offset="0.7154" stop-color="#F6BE56"/>
<stop offset="1" stop-color="#F2B45A"/>
</linearGradient>
<linearGradient id="paint14_linear" x1="1378.31" y1="850.928" x2="1419.37" y2="847.327" gradientUnits="userSpaceOnUse">
<stop offset="0.0277" stop-color="#FFD24D"/>
<stop offset="0.7154" stop-color="#F6BE56"/>
<stop offset="1" stop-color="#F2B45A"/>
</linearGradient>
<linearGradient id="paint15_linear" x1="1371.2" y1="873.143" x2="1413.34" y2="869.447" gradientUnits="userSpaceOnUse">
<stop offset="0.0277" stop-color="#FFD24D"/>
<stop offset="0.7154" stop-color="#F6BE56"/>
<stop offset="1" stop-color="#F2B45A"/>
</linearGradient>
<linearGradient id="paint16_linear" x1="1322.08" y1="386.11" x2="1323.7" y2="416.054" gradientUnits="userSpaceOnUse">
<stop offset="0.0277" stop-color="#FFD24D"/>
<stop offset="0.7154" stop-color="#F6BE56"/>
<stop offset="1" stop-color="#F2B45A"/>
</linearGradient>
<linearGradient id="paint17_linear" x1="1321.68" y1="393.499" x2="1324.18" y2="439.73" gradientUnits="userSpaceOnUse">
<stop offset="0.0277" stop-color="#FFD24D"/>
<stop offset="0.7154" stop-color="#F6BE56"/>
<stop offset="1" stop-color="#F2B45A"/>
</linearGradient>
<linearGradient id="paint18_linear" x1="1345.4" y1="382.018" x2="1347.96" y2="429.476" gradientUnits="userSpaceOnUse">
<stop offset="0.0277" stop-color="#FFD24D"/>
<stop offset="0.7154" stop-color="#F6BE56"/>
<stop offset="1" stop-color="#F2B45A"/>
</linearGradient>
<linearGradient id="paint19_linear" x1="759.637" y1="833.002" x2="798.601" y2="829.584" gradientUnits="userSpaceOnUse">
<stop offset="0.0277" stop-color="#FFD24D"/>
<stop offset="0.1674" stop-color="#EBC34D"/>
<stop offset="0.4544" stop-color="#B69D4D"/>
<stop offset="0.8604" stop-color="#625F4E"/>
<stop offset="1" stop-color="#44494E"/>
</linearGradient>
<linearGradient id="paint20_linear" x1="769.215" y1="831.105" x2="829.618" y2="825.807" gradientUnits="userSpaceOnUse">
<stop offset="0.0277" stop-color="#FFD24D"/>
<stop offset="0.1674" stop-color="#EBC34D"/>
<stop offset="0.4544" stop-color="#B69D4D"/>
<stop offset="0.8604" stop-color="#625F4E"/>
<stop offset="1" stop-color="#44494E"/>
</linearGradient>
<linearGradient id="paint21_linear" x1="758.626" y1="864.168" x2="820.645" y2="858.728" gradientUnits="userSpaceOnUse">
<stop offset="0.0277" stop-color="#FFD24D"/>
<stop offset="0.1674" stop-color="#EBC34D"/>
<stop offset="0.4544" stop-color="#B69D4D"/>
<stop offset="0.8604" stop-color="#625F4E"/>
<stop offset="1" stop-color="#44494E"/>
</linearGradient>
<linearGradient id="paint22_linear" x1="826.321" y1="965.633" x2="899.465" y2="965.633" gradientUnits="userSpaceOnUse">
<stop offset="0.0277" stop-color="#FFD24D"/>
<stop offset="0.7154" stop-color="#FFBE56"/>
<stop offset="1" stop-color="#FFB45A"/>
</linearGradient>
<linearGradient id="paint23_linear" x1="1385.71" y1="695.684" x2="1405.66" y2="714.939" gradientUnits="userSpaceOnUse">
<stop offset="0.0277" stop-color="#FFD24D"/>
<stop offset="0.7154" stop-color="#F6BE56"/>
<stop offset="1" stop-color="#F2B45A"/>
</linearGradient>
<linearGradient id="paint24_linear" x1="736.97" y1="862.329" x2="1473.06" y2="594.188" gradientUnits="userSpaceOnUse">
<stop offset="0.0277" stop-color="#FFD24D"/>
<stop offset="0.0356" stop-color="#F7CC4C"/>
<stop offset="0.0797" stop-color="#CEAE4A"/>
<stop offset="0.1292" stop-color="#A89348"/>
<stop offset="0.1831" stop-color="#887B45"/>
<stop offset="0.2427" stop-color="#6C6744"/>
<stop offset="0.3099" stop-color="#565742"/>
<stop offset="0.3884" stop-color="#454B41"/>
<stop offset="0.4856" stop-color="#3A4241"/>
<stop offset="0.6218" stop-color="#333D40"/>
<stop offset="1" stop-color="#313C40"/>
</linearGradient>
<linearGradient id="paint25_linear" x1="635.01" y1="714.906" x2="1540.59" y2="714.906" gradientUnits="userSpaceOnUse">
<stop stop-color="#5C5A44"/>
<stop offset="0.6103" stop-color="#3F4541"/>
<stop offset="1" stop-color="#313C40"/>
</linearGradient>
<linearGradient id="paint26_linear" x1="915.351" y1="510.549" x2="1300.43" y2="895.955" gradientUnits="userSpaceOnUse">
<stop stop-color="#313C40"/>
<stop offset="0.251" stop-color="#333E40"/>
<stop offset="0.397" stop-color="#3C4441"/>
<stop offset="0.5161" stop-color="#4A4E42"/>
<stop offset="0.6208" stop-color="#5E5D43"/>
<stop offset="0.716" stop-color="#786F44"/>
<stop offset="0.8042" stop-color="#988746"/>
<stop offset="0.8873" stop-color="#BDA249"/>
<stop offset="0.964" stop-color="#E8C14C"/>
<stop offset="1" stop-color="#FFD24D"/>
</linearGradient>
<clipPath id="clip0">
<rect width="1441" height="1149" fill="white" transform="translate(0.5 -63)"/>
</clipPath>
</defs>
</svg>
